<mxfile host="app.diagrams.net" modified="2023-10-11T06:44:55.129Z" agent="Mozilla/5.0 (Windows NT 10.0; Win64; x64) AppleWebKit/537.36 (KHTML, like Gecko) Chrome/117.0.0.0 Safari/537.36 Edg/117.0.2045.60" etag="Xz-c99w8Es8OXq17r-7r" version="22.0.4" type="github">
  <diagram name="第 1 页" id="D16wZWNPyYbbszcKswtQ">
    <mxGraphModel dx="746" dy="433" grid="1" gridSize="10" guides="1" tooltips="1" connect="1" arrows="1" fold="1" page="1" pageScale="1" pageWidth="827" pageHeight="1169" math="0" shadow="0">
      <root>
        <mxCell id="0" />
        <mxCell id="1" parent="0" />
        <mxCell id="mkteSOG08yWQhOOoo0B0-8" value="&#xa;HasPhysical&#xa;&#xa;" style="edgeStyle=orthogonalEdgeStyle;orthogonalLoop=1;jettySize=auto;html=1;rounded=0;strokeColor=default;" edge="1" parent="1" source="mkteSOG08yWQhOOoo0B0-1">
          <mxGeometry x="-0.0968" y="-30" relative="1" as="geometry">
            <mxPoint x="259" y="109.5" as="sourcePoint" />
            <mxPoint x="570" y="110" as="targetPoint" />
            <Array as="points">
              <mxPoint x="419" y="110" />
            </Array>
            <mxPoint as="offset" />
          </mxGeometry>
        </mxCell>
        <mxCell id="mkteSOG08yWQhOOoo0B0-1" value="Movie" style="rounded=0;whiteSpace=wrap;html=1;strokeColor=#000000;direction=west;" vertex="1" parent="1">
          <mxGeometry x="130" y="100" width="120" height="30" as="geometry" />
        </mxCell>
        <mxCell id="mkteSOG08yWQhOOoo0B0-2" value="&#xa;RentalCopy&#xa;&#xa;" style="rounded=0;whiteSpace=wrap;html=1;strokeColor=#000000;" vertex="1" parent="1">
          <mxGeometry x="560" y="100" width="120" height="30" as="geometry" />
        </mxCell>
        <mxCell id="mkteSOG08yWQhOOoo0B0-10" value="Customer" style="rounded=0;whiteSpace=wrap;html=1;strokeColor=#000000;direction=west;" vertex="1" parent="1">
          <mxGeometry x="560" y="310" width="120" height="30" as="geometry" />
        </mxCell>
        <mxCell id="mkteSOG08yWQhOOoo0B0-17" value="" style="endArrow=none;html=1;entryX=0.5;entryY=1;entryDx=0;entryDy=0;" edge="1" parent="1" source="mkteSOG08yWQhOOoo0B0-10" target="mkteSOG08yWQhOOoo0B0-2">
          <mxGeometry width="50" height="50" relative="1" as="geometry">
            <mxPoint x="360" y="250" as="sourcePoint" />
            <mxPoint x="410" y="200" as="targetPoint" />
          </mxGeometry>
        </mxCell>
        <mxCell id="mkteSOG08yWQhOOoo0B0-18" value="RentsPhysical" style="edgeLabel;html=1;align=center;verticalAlign=middle;resizable=0;points=[];" vertex="1" connectable="0" parent="mkteSOG08yWQhOOoo0B0-17">
          <mxGeometry x="-0.2208" y="1" relative="1" as="geometry">
            <mxPoint x="41" y="-10" as="offset" />
          </mxGeometry>
        </mxCell>
        <mxCell id="mkteSOG08yWQhOOoo0B0-19" value="Rental" style="rounded=0;whiteSpace=wrap;html=1;strokeColor=#000000;direction=west;" vertex="1" parent="1">
          <mxGeometry x="220" y="310" width="120" height="30" as="geometry" />
        </mxCell>
        <mxCell id="mkteSOG08yWQhOOoo0B0-20" value="Purchase" style="rounded=0;whiteSpace=wrap;html=1;strokeColor=#000000;direction=west;" vertex="1" parent="1">
          <mxGeometry x="200" y="350" width="120" height="20" as="geometry" />
        </mxCell>
        <mxCell id="mkteSOG08yWQhOOoo0B0-21" value="Member" style="rounded=0;whiteSpace=wrap;html=1;strokeColor=#000000;direction=west;" vertex="1" parent="1">
          <mxGeometry x="560" y="390" width="120" height="30" as="geometry" />
        </mxCell>
        <mxCell id="mkteSOG08yWQhOOoo0B0-22" value="" style="endArrow=none;html=1;entryX=0.25;entryY=0;entryDx=0;entryDy=0;exitX=0.75;exitY=1;exitDx=0;exitDy=0;rounded=0;" edge="1" parent="1" source="mkteSOG08yWQhOOoo0B0-10" target="mkteSOG08yWQhOOoo0B0-1">
          <mxGeometry width="50" height="50" relative="1" as="geometry">
            <mxPoint x="360" y="250" as="sourcePoint" />
            <mxPoint x="410" y="200" as="targetPoint" />
            <Array as="points">
              <mxPoint x="590" y="230" />
              <mxPoint x="220" y="230" />
            </Array>
          </mxGeometry>
        </mxCell>
        <mxCell id="mkteSOG08yWQhOOoo0B0-23" value="Review" style="rounded=0;whiteSpace=wrap;html=1;" vertex="1" parent="1">
          <mxGeometry x="330" y="260" width="120" height="30" as="geometry" />
        </mxCell>
        <mxCell id="mkteSOG08yWQhOOoo0B0-24" value="" style="endArrow=none;dashed=1;html=1;exitX=0.5;exitY=0;exitDx=0;exitDy=0;" edge="1" parent="1" source="mkteSOG08yWQhOOoo0B0-23">
          <mxGeometry width="50" height="50" relative="1" as="geometry">
            <mxPoint x="360" y="250" as="sourcePoint" />
            <mxPoint x="390" y="230" as="targetPoint" />
          </mxGeometry>
        </mxCell>
        <mxCell id="mkteSOG08yWQhOOoo0B0-25" value="" style="endArrow=none;html=1;entryX=0.5;entryY=0;entryDx=0;entryDy=0;rounded=0;exitX=1;exitY=0.5;exitDx=0;exitDy=0;" edge="1" parent="1" source="mkteSOG08yWQhOOoo0B0-19" target="mkteSOG08yWQhOOoo0B0-1">
          <mxGeometry width="50" height="50" relative="1" as="geometry">
            <mxPoint x="200" y="320" as="sourcePoint" />
            <mxPoint x="410" y="200" as="targetPoint" />
            <Array as="points">
              <mxPoint x="190" y="325" />
            </Array>
          </mxGeometry>
        </mxCell>
        <mxCell id="mkteSOG08yWQhOOoo0B0-36" value="HasRental" style="edgeLabel;html=1;align=center;verticalAlign=middle;resizable=0;points=[];" vertex="1" connectable="0" parent="mkteSOG08yWQhOOoo0B0-25">
          <mxGeometry x="-0.037" y="-3" relative="1" as="geometry">
            <mxPoint as="offset" />
          </mxGeometry>
        </mxCell>
        <mxCell id="mkteSOG08yWQhOOoo0B0-26" value="" style="endArrow=none;html=1;entryX=1;entryY=0.5;entryDx=0;entryDy=0;exitX=0;exitY=0.5;exitDx=0;exitDy=0;rounded=0;" edge="1" parent="1" source="mkteSOG08yWQhOOoo0B0-19" target="mkteSOG08yWQhOOoo0B0-10">
          <mxGeometry width="50" height="50" relative="1" as="geometry">
            <mxPoint x="210" y="330" as="sourcePoint" />
            <mxPoint x="170" y="140" as="targetPoint" />
            <Array as="points" />
          </mxGeometry>
        </mxCell>
        <mxCell id="mkteSOG08yWQhOOoo0B0-34" value="Has" style="edgeLabel;html=1;align=center;verticalAlign=middle;resizable=0;points=[];" vertex="1" connectable="0" parent="mkteSOG08yWQhOOoo0B0-26">
          <mxGeometry x="-0.1152" y="-1" relative="1" as="geometry">
            <mxPoint as="offset" />
          </mxGeometry>
        </mxCell>
        <mxCell id="mkteSOG08yWQhOOoo0B0-27" value="" style="endArrow=none;html=1;entryX=0.879;entryY=-0.044;entryDx=0;entryDy=0;exitX=1;exitY=0.5;exitDx=0;exitDy=0;rounded=0;entryPerimeter=0;" edge="1" parent="1" source="mkteSOG08yWQhOOoo0B0-20" target="mkteSOG08yWQhOOoo0B0-1">
          <mxGeometry width="50" height="50" relative="1" as="geometry">
            <mxPoint x="340" y="270" as="sourcePoint" />
            <mxPoint x="110" y="200" as="targetPoint" />
            <Array as="points">
              <mxPoint x="145" y="360" />
            </Array>
          </mxGeometry>
        </mxCell>
        <mxCell id="mkteSOG08yWQhOOoo0B0-37" value="HasPurchase" style="edgeLabel;html=1;align=center;verticalAlign=middle;resizable=0;points=[];" vertex="1" connectable="0" parent="mkteSOG08yWQhOOoo0B0-27">
          <mxGeometry x="-0.201" y="1" relative="1" as="geometry">
            <mxPoint as="offset" />
          </mxGeometry>
        </mxCell>
        <mxCell id="mkteSOG08yWQhOOoo0B0-28" value="" style="endArrow=none;html=1;entryX=0;entryY=0.5;entryDx=0;entryDy=0;exitX=0.75;exitY=0;exitDx=0;exitDy=0;rounded=0;" edge="1" parent="1" source="mkteSOG08yWQhOOoo0B0-10" target="mkteSOG08yWQhOOoo0B0-20">
          <mxGeometry width="50" height="50" relative="1" as="geometry">
            <mxPoint x="210" y="370" as="sourcePoint" />
            <mxPoint x="170" y="140" as="targetPoint" />
            <Array as="points">
              <mxPoint x="590" y="360" />
            </Array>
          </mxGeometry>
        </mxCell>
        <mxCell id="mkteSOG08yWQhOOoo0B0-35" value="Makes" style="edgeLabel;html=1;align=center;verticalAlign=middle;resizable=0;points=[];" vertex="1" connectable="0" parent="mkteSOG08yWQhOOoo0B0-28">
          <mxGeometry x="0.1977" y="3" relative="1" as="geometry">
            <mxPoint as="offset" />
          </mxGeometry>
        </mxCell>
        <mxCell id="mkteSOG08yWQhOOoo0B0-29" value="" style="endArrow=none;html=1;entryX=0;entryY=0.5;entryDx=0;entryDy=0;rounded=0;exitX=1;exitY=0.5;exitDx=0;exitDy=0;" edge="1" parent="1" source="mkteSOG08yWQhOOoo0B0-2" target="mkteSOG08yWQhOOoo0B0-21">
          <mxGeometry width="50" height="50" relative="1" as="geometry">
            <mxPoint x="680" y="120" as="sourcePoint" />
            <mxPoint x="330" y="370" as="targetPoint" />
            <Array as="points">
              <mxPoint x="760" y="115" />
              <mxPoint x="760" y="405" />
            </Array>
          </mxGeometry>
        </mxCell>
        <mxCell id="mkteSOG08yWQhOOoo0B0-33" value="Reverse" style="edgeLabel;html=1;align=center;verticalAlign=middle;resizable=0;points=[];" vertex="1" connectable="0" parent="mkteSOG08yWQhOOoo0B0-29">
          <mxGeometry x="-0.0948" y="-3" relative="1" as="geometry">
            <mxPoint as="offset" />
          </mxGeometry>
        </mxCell>
        <mxCell id="mkteSOG08yWQhOOoo0B0-31" value="" style="triangle;whiteSpace=wrap;html=1;direction=north;" vertex="1" parent="1">
          <mxGeometry x="610" y="340" width="20" height="10" as="geometry" />
        </mxCell>
        <mxCell id="mkteSOG08yWQhOOoo0B0-32" value="" style="endArrow=none;html=1;entryX=0;entryY=0.5;entryDx=0;entryDy=0;exitX=0.5;exitY=1;exitDx=0;exitDy=0;" edge="1" parent="1" source="mkteSOG08yWQhOOoo0B0-21" target="mkteSOG08yWQhOOoo0B0-31">
          <mxGeometry width="50" height="50" relative="1" as="geometry">
            <mxPoint x="490" y="250" as="sourcePoint" />
            <mxPoint x="540" y="200" as="targetPoint" />
          </mxGeometry>
        </mxCell>
        <mxCell id="mkteSOG08yWQhOOoo0B0-38" value="?..*" style="text;strokeColor=none;fillColor=none;align=left;verticalAlign=middle;spacingLeft=4;spacingRight=4;overflow=hidden;points=[[0,0.5],[1,0.5]];portConstraint=eastwest;rotatable=0;whiteSpace=wrap;html=1;" vertex="1" parent="1">
          <mxGeometry x="630" y="130" width="80" height="30" as="geometry" />
        </mxCell>
        <mxCell id="mkteSOG08yWQhOOoo0B0-39" value="?..5" style="text;strokeColor=none;fillColor=none;align=left;verticalAlign=middle;spacingLeft=4;spacingRight=4;overflow=hidden;points=[[0,0.5],[1,0.5]];portConstraint=eastwest;rotatable=0;whiteSpace=wrap;html=1;" vertex="1" parent="1">
          <mxGeometry x="690" y="80" width="80" height="30" as="geometry" />
        </mxCell>
      </root>
    </mxGraphModel>
  </diagram>
</mxfile>
